<?xml version="1.0" encoding="UTF-8" standalone="no"?>
<!-- Created with Inkscape (http://www.inkscape.org/) -->

<svg
   xmlns:dc="http://purl.org/dc/elements/1.1/"
   xmlns:cc="http://creativecommons.org/ns#"
   xmlns:rdf="http://www.w3.org/1999/02/22-rdf-syntax-ns#"
   xmlns:svg="http://www.w3.org/2000/svg"
   xmlns="http://www.w3.org/2000/svg"
   xmlns:sodipodi="http://sodipodi.sourceforge.net/DTD/sodipodi-0.dtd"
   xmlns:inkscape="http://www.inkscape.org/namespaces/inkscape"
   width="400"
   height="92.928001"
   viewBox="0 0 105.83333 24.587199"
   version="1.1"
   id="svg8"
   inkscape:version="0.92.3 (2405546, 2018-03-11)"
   sodipodi:docname="logo-banner.svg">
  <defs
     id="defs2" />
  <sodipodi:namedview
     id="base"
     pagecolor="#ffffff"
     bordercolor="#666666"
     borderopacity="1.0"
     inkscape:pageopacity="0.0"
     inkscape:pageshadow="2"
     inkscape:zoom="1.979899"
     inkscape:cx="143.1851"
     inkscape:cy="-78.416684"
     inkscape:document-units="mm"
     inkscape:current-layer="layer1"
     showgrid="false"
     fit-margin-top="0"
     fit-margin-left="0"
     fit-margin-right="0"
     fit-margin-bottom="0"
     units="px"
     inkscape:window-width="1853"
     inkscape:window-height="1145"
     inkscape:window-x="67"
     inkscape:window-y="27"
     inkscape:window-maximized="1" />
  <metadata
     id="metadata5">
    <rdf:RDF>
      <cc:Work
         rdf:about="">
        <dc:format>image/svg+xml</dc:format>
        <dc:type
           rdf:resource="http://purl.org/dc/dcmitype/StillImage" />
        <dc:title></dc:title>
      </cc:Work>
    </rdf:RDF>
  </metadata>
  <g
     inkscape:label="Layer 1"
     inkscape:groupmode="layer"
     id="layer1"
     transform="translate(-42.555073,-33.45402)">
    <g
       id="g1091"
       transform="matrix(0.71027149,0,0,0.71017779,19.347599,-37.100902)"
       style="stroke-width:1.40800524">
      <g
         style="stroke-width:2.77966356"
         id="g1227"
         transform="matrix(0.13382151,0,0,0.13422179,76.260883,-156.15392)">
        <path
           sodipodi:nodetypes="ccccc"
           inkscape:connector-curvature="0"
           id="rect828-9-5-0"
           d="m 422.307,1979.569 28.684,17.791 h -48.234 l -28.684,-17.791 z"
           style="fill:#d8e0e3;fill-opacity:1;stroke:none;stroke-width:4.16949558;stroke-linecap:round;stroke-miterlimit:4;stroke-dasharray:none;stroke-dashoffset:0;stroke-opacity:1" />
        <path
           sodipodi:nodetypes="ccccc"
           inkscape:connector-curvature="0"
           id="rect911-0-3"
           d="m 381.11912,1953.2738 h 94.98398 l -7.05727,26.295 H 374.0734 Z"
           style="fill:#f95b45;fill-opacity:1;stroke:#e2483e;stroke-width:4.16949558;stroke-linecap:round;stroke-miterlimit:4;stroke-dasharray:none;stroke-dashoffset:0;stroke-opacity:1" />
        <path
           inkscape:connector-curvature="0"
           id="rect911-6-8-1-4"
           d="m 302.71148,1919.8889 -26.28711,7.0586 55.83594,96.709 h 111.66992 l 7.06055,-26.2969 H 347.44195 Z"
           style="fill:#5aba62;fill-opacity:1;stroke:#469f4e;stroke-width:4.16949558;stroke-linecap:round;stroke-miterlimit:4;stroke-dasharray:none;stroke-dashoffset:0;stroke-opacity:1" />
        <path
           sodipodi:nodetypes="ccccc"
           inkscape:connector-curvature="0"
           id="rect828-9-5-0-3"
           d="m 359.87419,2067.7443 28.684,17.791 h -48.234 l -28.684,-17.791 z"
           style="fill:#d8e0e3;fill-opacity:1;stroke:none;stroke-width:4.16949558;stroke-linecap:round;stroke-miterlimit:4;stroke-dasharray:none;stroke-dashoffset:0;stroke-opacity:1" />
        <path
           sodipodi:nodetypes="ccccc"
           inkscape:connector-curvature="0"
           id="rect911-0-6-0"
           d="m 293.57421,2085.5353 h 94.98398 l -7.05727,26.2951 h -94.97243 z"
           style="fill:#23a9f6;fill-opacity:1;stroke:#1b92e1;stroke-width:4.16949558;stroke-linecap:round;stroke-miterlimit:4;stroke-dasharray:none;stroke-dashoffset:0;stroke-opacity:1" />
        <path
           id="rect911-6-8-1-5-4"
           d="m 459.91949,2145.2151 26.28711,-7.0586 -55.83594,-96.709 H 318.70074 l -7.06055,26.2968 h 103.54883 z"
           style="fill:#ffcb00;fill-opacity:1;stroke:#fcb20f;stroke-width:4.16949558;stroke-linecap:round;stroke-miterlimit:4;stroke-dasharray:none;stroke-dashoffset:0;stroke-opacity:1"
           inkscape:connector-curvature="0" />
      </g>
      <path
         d="m 101.12953,101.3055 c -1.274526,0 -2.307836,1.03315 -2.307836,2.30789 0,0.39908 0.10135,0.77443 0.27953,1.10188 -0.22974,0.11444 -0.76466,0.38281 -1.51409,0.77201 -0.27899,-0.57167 -0.8643,-0.96645 -1.54317,-0.96645 -0.94896,0 -1.71824,0.76922 -1.71824,1.71824 0,0.31698 0.0874,0.61299 0.23709,0.86784 -0.38533,0.21263 -0.78542,0.43582 -1.19566,0.66787 -0.241283,-0.36709 -0.656183,-0.60982 -1.128163,-0.60982 -0.7454,0 -1.3497,0.60424 -1.3497,1.34975 0,0.22073 0.054,0.42848 0.14798,0.61235 -0.42467,0.25335 -0.85266,0.51292 -1.28076,0.77727 -0.17174,-0.1454 -0.39344,-0.23339 -0.63616,-0.23339 -0.54442,0 -0.98577,0.44135 -0.98577,0.98577 0,0.0876 0.0126,0.17195 0.034,0.2527 -1.72586,1.12119 -3.37671,2.29614 -4.71375,3.43761 -1.55916,-3.48654 -3.85835,-7.31372 -7.05844,-10.42979 -0.003,-0.003 -0.006,-0.006 -0.009,-0.009 -0.37444,-0.36892 -0.68466,-0.20619 -0.2542,0.25335 0.005,0.006 0.0109,0.0118 0.0164,0.0177 2.71609,2.92249 4.8496,7.15212 6.30371,11.00882 -5.51602,4.71021 -11.59675,13.83682 -4.93201,16.70468 0.97037,0.41757 1.41263,-0.38077 0.995,-0.62651 -0.075,-0.0442 -3.04332,-1.6487 -1.15639,-6.57808 h 4.74964 c 0.25437,0 0.46061,-0.2063 0.46061,-0.46067 0,-0.25437 -0.20624,-0.46061 -0.46061,-0.46061 h -4.35588 c 0.25491,-0.54501 0.56572,-1.12586 0.94,-1.74432 h 3.41572 c 0.25453,0 0.46067,-0.20624 0.46067,-0.46061 0,-0.25437 -0.20614,-0.46066 -0.46067,-0.46066 h -2.82854 c 0.35256,-0.52757 0.74825,-1.07983 1.19293,-1.65837 h 1.63561 c 0.25453,0 0.46067,-0.20629 0.46067,-0.46061 0,-0.25437 -0.20614,-0.46067 -0.46067,-0.46067 h -0.90459 c 0.51593,-0.63037 1.08524,-1.2888 1.71534,-1.97776 0.005,-0.006 0.0109,-0.012 0.0163,-0.018 1.25253,3.62716 1.85731,6.72 1.72468,7.75169 -0.0721,0.56143 -0.43443,0.79606 -0.5801,0.86516 -0.23333,0.11058 -0.32894,0.43261 0.0369,0.5404 1.16701,0.34407 1.88532,-0.81446 2.01463,-1.74427 0.13026,-0.93769 -0.50789,-4.37074 -2.19302,-8.46367 1.40802,-1.40072 3.03285,-2.73878 4.68917,-3.96502 0.14481,0.0837 0.31248,0.13236 0.49184,0.13236 0.54447,0 0.98582,-0.4414 0.98582,-0.98582 0,-0.0663 -0.007,-0.13102 -0.0193,-0.19363 0.44017,-0.30679 0.87852,-0.605 1.31198,-0.89311 0.2306,0.18387 0.52226,0.29444 0.8401,0.29444 0.7454,0 1.349703,-0.60424 1.349703,-1.34969 0,-0.11208 -0.0151,-0.22036 -0.0409,-0.32444 0.43228,-0.26832 0.85179,-0.52371 1.25484,-0.76515 0.31295,0.32734 0.75275,0.53218 1.24131,0.53218 0.94897,0 1.71824,-0.76922 1.71824,-1.71824 0,-0.16713 -0.0251,-0.32819 -0.0695,-0.48094 0.73344,-0.40841 1.26836,-0.69696 1.52949,-0.84595 0.41544,0.60896 1.114476,1.00905 1.907366,1.00905 1.27458,0 2.30789,-1.03314 2.30789,-2.30783 0,-1.27475 -1.03331,-2.30789 -2.30789,-2.30789"
         style="fill:#f46b17;fill-opacity:1;fill-rule:nonzero;stroke:none;stroke-width:0.0496713"
         id="path876"
         inkscape:connector-curvature="0" />
      <g
         id="g122"
         transform="matrix(0.26458333,0,0,0.26458333,34.530609,101.30633)"
         style="stroke-width:1.40800524">
		<path
   style="fill:#4faedc;stroke-width:1.40800524"
   inkscape:connector-curvature="0"
   id="path2"
   d="m 59.8,21.9 c 2,1.8 4.1,3.5 6.3,5.1 2.7,-0.3 5.4,-0.8 8.1,-1.4 -0.1,-0.3 -0.2,-0.7 -0.3,-1 -3.5,-2.1 -6.9,-4.5 -10.1,-7 -1.3,1.5 -2.6,2.9 -4,4.3 z" />

		<path
   style="fill:#e34a3b;stroke-width:1.40800524"
   inkscape:connector-curvature="0"
   id="path4"
   d="m 32.9,89.7 c -2.6,-1.3 -5.3,-2.5 -8,-3.5 -1.2,3.1 -2.7,6.2 -4.3,9.1 4,-2.2 8.1,-4.1 12.3,-5.6 z" />

		<path
   style="fill:#4faedc;stroke-width:1.40800524"
   inkscape:connector-curvature="0"
   id="path6"
   d="M 72.9,20.7 C 72,16.2 71.5,11.5 71.4,6.8 c -1.8,3 -3.7,5.9 -5.9,8.6 2.4,1.8 4.9,3.6 7.4,5.3 z" />

		<path
   style="fill:#e34a3b;stroke-width:1.40800524"
   inkscape:connector-curvature="0"
   id="path8"
   d="m 37.3,88.3 c 0.3,-0.1 0.6,-0.2 0.9,-0.2 -0.8,-2.5 -1.7,-5 -2.8,-7.4 -2.5,-1.1 -5.1,-2 -7.7,-2.9 -0.5,1.9 -1.1,3.8 -1.7,5.7 3.7,1.4 7.3,3.1 10.8,5 0.2,-0.1 0.3,-0.1 0.5,-0.2 z" />

		<path
   style="fill:#e34a3b;stroke-width:1.40800524"
   inkscape:connector-curvature="0"
   id="path10"
   d="m 31.2,72.4 c -0.6,-1 -1.2,-1.9 -1.8,-2.9 -0.3,1.8 -0.6,3.7 -1,5.5 1.8,0.5 3.5,1.1 5.2,1.8 -0.7,-1.4 -1.5,-2.9 -2.4,-4.4 z" />

		<path
   style="fill:#e34a3b;stroke-width:1.40800524"
   inkscape:connector-curvature="0"
   id="path12"
   d="m 17.9,63.7 c -3.4,3 -7.1,5.6 -11,8 3.4,0 6.8,0.3 10.1,0.8 0.5,-2.9 0.8,-5.8 0.9,-8.8 z" />

		<path
   style="fill:#e34a3b;stroke-width:1.40800524"
   inkscape:connector-curvature="0"
   id="path14"
   d="m 25,77 c -1.8,-0.5 -3.7,-0.9 -5.5,-1.3 -0.3,1.7 -0.6,3.4 -1,5.1 1.6,0.5 3.3,1 4.9,1.6 0.5,-1.7 1.1,-3.5 1.6,-5.4 z" />

		<path
   style="fill:#9f7ab0;stroke-width:1.40800524"
   inkscape:connector-curvature="0"
   id="path16"
   d="m 28.3,41 c 0.4,1.7 0.7,3.5 1,5.3 1.5,-2.3 2.9,-4.6 4.1,-7 -1.7,0.6 -3.4,1.1 -5.1,1.7 z" />

		<path
   style="fill:#4faedc;stroke-width:1.40800524"
   inkscape:connector-curvature="0"
   id="path18"
   d="M 61.8,27.3 C 60.4,26.2 59,25 57.7,23.8 c -1.3,1.2 -2.6,2.4 -4,3.5 2.7,0.2 5.4,0.2 8.1,0 z" />

		<path
   style="fill:#1b75bb;stroke-width:1.40800524"
   inkscape:connector-curvature="0"
   id="path20"
   d="m 82.6,26.2 c 2.7,1.3 5.4,2.5 8.1,3.6 1.2,-3.1 2.7,-6.2 4.3,-9.2 -4,2.2 -8.1,4.1 -12.4,5.6 z" />

		<path
   style="fill:#9f7ab0;stroke-width:1.40800524"
   inkscape:connector-curvature="0"
   id="path22"
   d="m 24.9,29.9 c 2.8,-1.1 5.5,-2.4 8.2,-3.7 -4.4,-1.5 -8.6,-3.4 -12.7,-5.6 1.7,3 3.2,6.1 4.5,9.3 z" />

		<path
   style="fill:#4faedc;stroke-width:1.40800524"
   inkscape:connector-curvature="0"
   id="path24"
   d="m 57.7,12.3 c -1.2,1.2 -2.5,2.3 -3.8,3.4 1.2,1.4 2.5,2.8 3.9,4.1 1.3,-1.3 2.6,-2.7 3.8,-4.1 -1.4,-1 -2.7,-2.2 -3.9,-3.4 z" />

		<path
   style="fill:#4faedc;stroke-width:1.40800524"
   inkscape:connector-curvature="0"
   id="path26"
   d="m 55.7,21.9 c -1.4,-1.4 -2.7,-2.8 -4,-4.3 -3.1,2.5 -6.4,4.8 -9.8,6.9 -0.1,0.4 -0.2,0.8 -0.3,1.2 2.6,0.6 5.3,1 8,1.3 2.1,-1.6 4.1,-3.3 6.1,-5.1 z" />

		<path
   style="fill:#f9a533;stroke-width:1.40800524"
   inkscape:connector-curvature="0"
   id="path28"
   d="m 53.7,88.5 c 1.4,1.1 2.8,2.3 4.2,3.6 1.3,-1.2 2.7,-2.5 4.1,-3.6 -2.7,-0.2 -5.5,-0.2 -8.3,0 z" />

		<path
   style="fill:#f9a533;stroke-width:1.40800524"
   inkscape:connector-curvature="0"
   id="path30"
   d="m 43,95.5 c 0.8,4.4 1.3,8.8 1.4,13.2 1.7,-2.8 3.6,-5.6 5.6,-8.2 -2.2,-1.7 -4.6,-3.4 -7,-5 z" />

		<path
   style="fill:#f9a533;stroke-width:1.40800524"
   inkscape:connector-curvature="0"
   id="path32"
   d="m 57.9,103.6 c 1.3,-1.2 2.5,-2.3 3.9,-3.5 -1.2,-1.4 -2.5,-2.8 -3.8,-4.1 -1.3,1.3 -2.6,2.7 -3.9,4.2 1.3,1.1 2.5,2.2 3.8,3.4 z" />

		<path
   style="fill:#f9a533;stroke-width:1.40800524"
   inkscape:connector-curvature="0"
   id="path34"
   d="m 55.9,94 c -2,-1.9 -4.1,-3.6 -6.4,-5.2 -2.6,0.3 -5.2,0.7 -7.7,1.3 0.1,0.5 0.3,1 0.4,1.4 3.3,2.1 6.6,4.3 9.7,6.8 1.2,-1.4 2.6,-2.9 4,-4.3 z" />

		<path
   style="fill:#1b75bb;stroke-width:1.40800524"
   inkscape:connector-curvature="0"
   id="path36"
   d="m 97.2,35.1 c -1.6,-0.5 -3.2,-1 -4.8,-1.6 -0.6,1.8 -1.2,3.6 -1.6,5.4 1.8,0.5 3.6,0.9 5.5,1.2 0.2,-1.7 0.5,-3.4 0.9,-5 z" />

		<path
   style="fill:#1b75bb;stroke-width:1.40800524"
   inkscape:connector-curvature="0"
   id="path38"
   d="m 99,40.6 c 4.8,0.7 9.7,0.9 14.6,0.7 -0.3,-0.9 -0.6,-1.9 -0.9,-2.8 -4.3,-0.6 -8.5,-1.4 -12.7,-2.6 -0.4,1.5 -0.7,3.1 -1,4.7 z" />

		<path
   style="fill:#8bc53f;stroke-width:1.40800524"
   inkscape:connector-curvature="0"
   id="path40"
   d="m 109,71.5 c -4,-2.4 -7.8,-5.1 -11.3,-8.2 0.2,3 0.5,6 0.9,9 3.4,-0.5 6.9,-0.8 10.4,-0.8 z" />

		<path
   style="fill:#9f7ab0;stroke-width:1.40800524"
   inkscape:connector-curvature="0"
   id="path42"
   d="m 7.1,44.4 c 3.8,2.3 7.4,4.9 10.8,7.8 -0.2,-2.9 -0.5,-5.8 -0.9,-8.6 -3.3,0.5 -6.6,0.7 -9.9,0.8 z" />

		<path
   style="fill:#1b75bb;stroke-width:1.40800524"
   inkscape:connector-curvature="0"
   id="path44"
   d="m 94.7,55 c 0.1,-4.1 0.5,-8.1 1,-12.1 -1.9,-0.4 -3.8,-0.8 -5.7,-1.3 -0.6,2.6 -1,5.2 -1.3,7.8 1.6,2.2 3.4,4.3 5.2,6.3 0.3,-0.2 0.6,-0.4 0.8,-0.7 z" />

		<path
   style="fill:#8bc53f;stroke-width:1.40800524"
   inkscape:connector-curvature="0"
   id="path46"
   d="M 90.8,85.9 C 88,87 85.4,88.2 82.7,89.5 87,91 91.2,92.8 95.1,95 93.5,92.1 92,89 90.8,85.9 Z" />

		<path
   style="fill:#f9a533;stroke-width:1.40800524"
   inkscape:connector-curvature="0"
   id="path48"
   d="m 60,94 c 1.4,1.4 2.7,2.8 4,4.3 3.2,-2.6 6.5,-4.9 10,-7.1 0.1,-0.4 0.2,-0.7 0.3,-1.1 -2.6,-0.6 -5.3,-1 -8,-1.3 C 64.1,90.4 62,92.2 60,94 Z" />

		<path
   style="fill:#e34a3b;stroke-width:1.40800524"
   inkscape:connector-curvature="0"
   id="path50"
   d="M 27,66.1 C 25.4,64 23.7,61.9 21.9,60 c -0.3,0.3 -0.7,0.7 -1,1 -0.1,4 -0.4,8 -1,12 1.9,0.4 3.9,0.8 5.8,1.3 0.5,-2.7 1,-5.4 1.3,-8.2 z" />

		<path
   style="fill:#8bc53f;stroke-width:1.40800524"
   inkscape:connector-curvature="0"
   id="path52"
   d="m 86.4,69.7 c -1.4,2.2 -2.8,4.5 -4,6.9 1.6,-0.6 3.3,-1.2 5,-1.7 -0.4,-1.7 -0.8,-3.4 -1,-5.2 z" />

		<path
   style="fill:#8bc53f;stroke-width:1.40800524"
   inkscape:connector-curvature="0"
   id="path54"
   d="m 89.8,83.3 c -0.7,-1.9 -1.2,-3.7 -1.7,-5.6 -2.5,0.8 -5,1.7 -7.4,2.8 -1.1,2.5 -2,5 -2.8,7.6 0.4,0.1 0.7,0.2 1.1,0.3 3.4,-1.9 7.1,-3.7 10.8,-5.1 z" />

		<path
   style="fill:#9f7ab0;stroke-width:1.40800524"
   inkscape:connector-curvature="0"
   id="path56"
   d="m 38,27.7 c -0.4,-0.1 -0.7,-0.2 -1.1,-0.3 -3.6,1.9 -7.2,3.7 -11,5.2 0.7,1.8 1.2,3.7 1.8,5.6 2.6,-0.8 5.1,-1.8 7.6,-2.9 1,-2.4 1.9,-5 2.7,-7.6 z" />

		<path
   style="fill:#f9a533;stroke-width:1.40800524"
   inkscape:connector-curvature="0"
   id="path58"
   d="m 71.7,109 c 0,-4.7 0.5,-9.3 1.4,-13.8 -2.5,1.7 -4.9,3.4 -7.3,5.3 2.1,2.7 4.1,5.5 5.9,8.5 z" />

		<path
   style="fill:#e34a3b;stroke-width:1.40800524"
   inkscape:connector-curvature="0"
   id="path60"
   d="m 18.1,57 c 0,-0.3 0,-0.6 0,-0.8 C 13.2,51.6 7.6,47.8 1.6,44.7 c -2,8.6 -2.2,17.7 0,26.8 6.1,-3.2 11.6,-7.1 16.5,-11.7 0,-1 0,-1.9 0,-2.8 z" />

		<path
   style="fill:#f9a533;stroke-width:1.40800524"
   inkscape:connector-curvature="0"
   id="path62"
   d="m 60,105.5 c 3,3 5.9,6.2 8.6,9.6 1,-0.2 2,-0.4 2.9,-0.6 -2.2,-4.4 -4.9,-8.5 -7.9,-12.2 -1.3,1.1 -2.5,2.1 -3.6,3.2 z" />

		<path
   style="fill:#f9a533;stroke-width:1.40800524"
   inkscape:connector-curvature="0"
   id="path64"
   d="m 36.5,91.6 c -6.5,2 -12.7,4.9 -18.4,8.6 6.6,6.3 14.6,10.9 23.4,13.5 0.3,-6.8 -0.3,-13.6 -1.8,-20.3 -1.1,-0.6 -2.2,-1.2 -3.2,-1.8 z" />

		<path
   style="fill:#f9a533;stroke-width:1.40800524"
   inkscape:connector-curvature="0"
   id="path66"
   d="m 50.6,115.6 c 4.8,0.6 9.7,0.6 14.6,0 -2.3,-2.9 -4.8,-5.6 -7.4,-8.1 -2.5,2.6 -4.9,5.3 -7.2,8.1 z" />

		<path
   style="fill:#e34a3b;stroke-width:1.40800524"
   inkscape:connector-curvature="0"
   id="path68"
   d="m 17.7,83.6 c -1.1,4.1 -2.4,8 -4,11.9 0.7,0.8 1.3,1.5 2,2.3 2.6,-4 4.8,-8.3 6.5,-12.7 -1.4,-0.5 -2.9,-1 -4.5,-1.5 z" />

		<path
   style="fill:#e34a3b;stroke-width:1.40800524"
   inkscape:connector-curvature="0"
   id="path70"
   d="M 16.6,75.3 C 12,74.6 7.2,74.4 2.4,74.6 c 0.3,1 0.6,2 1,2.9 4.1,0.6 8.2,1.4 12.2,2.5 0.4,-1.5 0.7,-3.1 1,-4.7 z" />

		<path
   style="fill:#e34a3b;stroke-width:1.40800524"
   inkscape:connector-curvature="0"
   id="path72"
   d="M 4.6,80.6 C 6.5,85.1 8.9,89.2 11.7,93 13,89.7 14.1,86.3 15,82.8 11.6,81.9 8.1,81.2 4.6,80.6 Z" />

		<path
   style="fill:#f9a533;stroke-width:1.40800524"
   inkscape:connector-curvature="0"
   id="path74"
   d="m 52.2,102.4 c -3,3.8 -5.6,7.8 -7.7,12.1 1,0.2 1.9,0.4 2.9,0.6 2.6,-3.4 5.4,-6.6 8.4,-9.6 -1.1,-1 -2.3,-2.1 -3.6,-3.1 z" />

		<path
   style="fill:#8bc53f;stroke-width:1.40800524"
   inkscape:connector-curvature="0"
   id="path76"
   d="m 76.4,93.1 c -1.6,6.7 -2.2,13.6 -1.8,20.6 9.1,-2.7 17,-7.4 23.4,-13.6 -5.9,-3.8 -12.2,-6.7 -18.8,-8.7 -0.9,0.6 -1.8,1.1 -2.8,1.7 z" />

		<path
   style="fill:#1b75bb;stroke-width:1.40800524"
   inkscape:connector-curvature="0"
   id="path78"
   d="m 114.4,44.3 c -6.3,3.2 -11.9,7.3 -16.9,12 0,1 0,2 0,3 5,4.7 10.7,8.8 17,12 2.1,-8.6 2.2,-17.9 -0.1,-27 z" />

		<path
   style="fill:#8bc53f;stroke-width:1.40800524"
   inkscape:connector-curvature="0"
   id="path80"
   d="m 104.2,93.2 c 3,-4 5.5,-8.3 7.4,-13 -3.7,0.6 -7.3,1.3 -10.9,2.3 1,3.7 2.1,7.3 3.5,10.7 z" />

		<path
   style="fill:#8bc53f;stroke-width:1.40800524"
   inkscape:connector-curvature="0"
   id="path82"
   d="m 99.1,75.1 c 0.3,1.6 0.6,3.1 1,4.7 4.2,-1.2 8.5,-2 12.8,-2.6 0.3,-0.9 0.6,-1.8 0.9,-2.8 -5,-0.2 -9.9,0 -14.7,0.7 z" />

		<path
   style="fill:#8bc53f;stroke-width:1.40800524"
   inkscape:connector-curvature="0"
   id="path84"
   d="m 96.3,75.6 c -1.8,0.3 -3.7,0.8 -5.5,1.3 0.5,1.8 1,3.6 1.7,5.4 1.6,-0.6 3.2,-1.1 4.8,-1.6 -0.4,-1.7 -0.7,-3.4 -1,-5.1 z" />

		<path
   style="fill:#8bc53f;stroke-width:1.40800524"
   inkscape:connector-curvature="0"
   id="path86"
   d="m 93.5,84.9 c 1.8,4.5 4,8.9 6.7,13 0.7,-0.7 1.3,-1.4 1.9,-2.1 -1.7,-4.1 -3,-8.2 -4.1,-12.4 -1.5,0.5 -3,1 -4.5,1.5 z" />

		<path
   style="fill:#8bc53f;stroke-width:1.40800524"
   inkscape:connector-curvature="0"
   id="path88"
   d="m 95.8,72.8 c -0.6,-4.1 -1,-8.1 -1.1,-12.2 -0.2,-0.2 -0.5,-0.5 -0.7,-0.7 -1.9,2 -3.6,4.2 -5.2,6.4 0.3,2.6 0.8,5.3 1.3,7.8 1.9,-0.5 3.8,-0.9 5.7,-1.3 z" />

		<path
   style="fill:#4faedc;stroke-width:1.40800524"
   inkscape:connector-curvature="0"
   id="path90"
   d="m 55.6,10.4 c -3,-2.9 -5.7,-6 -8.3,-9.3 -1,0.2 -1.9,0.4 -2.9,0.6 2.2,4.2 4.8,8.2 7.7,11.9 1.2,-1.1 2.3,-2.2 3.5,-3.2 z" />

		<path
   style="fill:#1b75bb;stroke-width:1.40800524"
   inkscape:connector-curvature="0"
   id="path92"
   d="m 97.9,32.3 c 1.1,-4.1 2.4,-8.2 4.1,-12.2 -0.6,-0.7 -1.3,-1.5 -2,-2.2 -2.7,4.1 -4.9,8.4 -6.6,12.9 1.5,0.5 3,1 4.5,1.5 z" />

		<path
   style="fill:#4faedc;stroke-width:1.40800524"
   inkscape:connector-curvature="0"
   id="path94"
   d="m 79,24.3 c 6.6,-2 12.9,-4.9 18.7,-8.7 C 91.1,9.5 83.1,4.9 74.4,2.4 c -0.3,7 0.3,13.8 1.9,20.4 0.9,0.5 1.8,1 2.7,1.5 z" />

		<path
   style="fill:#1b75bb;stroke-width:1.40800524"
   inkscape:connector-curvature="0"
   id="path96"
   d="m 111.5,35.4 c -2,-4.6 -4.5,-8.9 -7.5,-12.8 -1.3,3.4 -2.5,6.9 -3.4,10.5 3.6,1 7.2,1.7 10.9,2.3 z" />

		<path
   style="fill:#9f7ab0;stroke-width:1.40800524"
   inkscape:connector-curvature="0"
   id="path98"
   d="m 16.5,40.8 c -0.3,-1.6 -0.6,-3.1 -1,-4.7 -4,1.1 -8.1,2 -12.2,2.6 -0.3,0.9 -0.7,1.9 -0.9,2.9 4.7,0.1 9.5,-0.1 14.1,-0.8 z" />

		<path
   style="fill:#1b75bb;stroke-width:1.40800524"
   inkscape:connector-curvature="0"
   id="path100"
   d="m 97.7,52.3 c 3.4,-3 7.1,-5.7 11.1,-8.1 -3.4,0 -6.8,-0.3 -10.2,-0.8 -0.5,2.9 -0.8,5.9 -0.9,8.9 z" />

		<path
   style="fill:#4faedc;stroke-width:1.40800524"
   inkscape:connector-curvature="0"
   id="path102"
   d="m 64.8,0.4 c -4.7,-0.6 -9.5,-0.5 -14.3,0.1 2.3,2.8 4.6,5.4 7.2,7.9 2.5,-2.6 4.9,-5.2 7.1,-8 z" />

		<path
   style="fill:#1b75bb;stroke-width:1.40800524"
   inkscape:connector-curvature="0"
   id="path104"
   d="m 82.4,39.2 c 1.2,2.3 2.5,4.6 3.9,6.8 0.3,-1.7 0.6,-3.4 1,-5.1 -1.6,-0.6 -3.3,-1.1 -4.9,-1.7 z" />

		<path
   style="fill:#4faedc;stroke-width:1.40800524"
   inkscape:connector-curvature="0"
   id="path106"
   d="m 63.4,13.6 c 3,-3.7 5.5,-7.8 7.7,-12.1 -1,-0.2 -2,-0.4 -3,-0.6 -2.6,3.3 -5.4,6.5 -8.4,9.5 1.2,1 2.4,2.1 3.7,3.2 z" />

		<path
   style="fill:#9f7ab0;stroke-width:1.40800524"
   inkscape:connector-curvature="0"
   id="path108"
   d="m 22.2,30.9 c -1.7,-4.4 -3.9,-8.6 -6.5,-12.6 -0.7,0.7 -1.4,1.5 -2,2.3 1.6,3.9 2.9,7.8 3.9,11.9 1.6,-0.5 3.1,-1 4.6,-1.6 z" />

		<path
   style="fill:#9f7ab0;stroke-width:1.40800524"
   inkscape:connector-curvature="0"
   id="path110"
   d="m 26.9,49.7 c -0.3,-2.7 -0.8,-5.3 -1.4,-7.9 -1.9,0.5 -3.8,1 -5.8,1.3 0.6,3.9 0.9,7.8 1.1,11.8 0.3,0.3 0.7,0.6 1,1 1.9,-2 3.6,-4 5.1,-6.2 z" />

		<path
   style="fill:#9f7ab0;stroke-width:1.40800524"
   inkscape:connector-curvature="0"
   id="path112"
   d="m 11.6,23.2 c -2.8,3.8 -5.2,8 -7,12.3 3.5,-0.6 6.9,-1.3 10.3,-2.2 -0.9,-3.4 -2,-6.8 -3.3,-10.1 z" />

		<path
   style="fill:#9f7ab0;stroke-width:1.40800524"
   inkscape:connector-curvature="0"
   id="path114"
   d="M 39.4,22.7 C 40.9,16.2 41.5,9.4 41.2,2.5 32.3,5.2 24.5,9.9 18.1,15.9 c 5.7,3.7 12,6.5 18.4,8.4 1,-0.5 2,-1.1 2.9,-1.6 z" />

		<path
   style="fill:#4faedc;stroke-width:1.40800524"
   inkscape:connector-curvature="0"
   id="path116"
   d="m 44.2,7.2 c -0.1,4.5 -0.5,9 -1.4,13.3 2.4,-1.6 4.8,-3.3 7.1,-5.2 -2.1,-2.5 -4,-5.2 -5.7,-8.1 z" />

		<path
   style="fill:#9f7ab0;stroke-width:1.40800524"
   inkscape:connector-curvature="0"
   id="path118"
   d="m 19.3,40.3 c 1.9,-0.4 3.7,-0.8 5.6,-1.3 -0.5,-1.8 -1.1,-3.6 -1.7,-5.4 -1.6,0.6 -3.3,1.1 -4.9,1.6 0.4,1.7 0.7,3.4 1,5.1 z" />

		<path
   style="fill:#1b75bb;stroke-width:1.40800524"
   inkscape:connector-curvature="0"
   id="path120"
   d="m 78.5,27.4 c -0.3,0.1 -0.6,0.1 -0.8,0.2 0.8,2.6 1.8,5.2 2.9,7.7 2.4,1 4.9,1.9 7.4,2.7 0.5,-1.9 1.1,-3.7 1.7,-5.6 -3.8,-1.5 -7.4,-3.2 -11,-5.1 -0.1,0.1 -0.1,0.1 -0.2,0.1 z" />

	</g>
      <g
         style="stroke-width:2.13164687"
         id="g8"
         transform="matrix(0.1747638,0,0,0.1747638,147.69366,99.907392)">
	<path
   class="st0"
   d="M 158.1,33.7 H 121.7 L 96,8 70.3,33.7 H 33.9 V 70.1 L 8.2,95.9 33.9,121.6 V 158 H 70.3 L 96,183.7 121.7,158 h 36.4 V 121.6 L 183.8,95.9 158.1,70.2 Z m 0.6,62.2 c 0,34.6 -28.1,62.7 -62.7,62.7 -34.6,0 -62.7,-28.1 -62.7,-62.7 0,-34.6 28.1,-62.7 62.7,-62.7 34.6,0 62.7,28.1 62.7,62.7 z"
   id="path4-9"
   inkscape:connector-curvature="0"
   style="fill:#fbbc05;stroke-width:2.13164687" />

	<path
   class="st0"
   d="m 96,41.2 c -30.2,0 -54.7,24.5 -54.7,54.7 0,30.2 24.5,54.7 54.7,54.7 30.2,0 54.7,-24.5 54.7,-54.7 C 150.7,65.7 126.2,41.2 96,41.2 Z M 79.9,75.6 v 9 l -14.5,11.3 14.5,11.3 v 9 l -1,-0.7 L 57.4,98.7 56,97.6 v -3.4 l 1.4,-1.1 21.5,-16.7 z m 25.8,-5.2 -11.9,52.6 -0.1,0.4 h -7.4 l 0.4,-2 11.9,-52.5 0.1,-0.4 h 7.4 z m 30.3,27.2 -1.4,1.1 -21.6,16.7 -1,0.7 v -9 L 126.5,95.8 112,84.5 v -9 0 l 1,0.7 21.5,16.8 1.4,1.1 v 3.5 z"
   id="path6-5"
   inkscape:connector-curvature="0"
   style="fill:#fbbc05;stroke-width:2.13164687" />

</g>
    </g>
  </g>
  <style
     id="style2"
     type="text/css">
	.st0{fill:#FBBC05;}
</style>
</svg>
